<mxfile host="app.diagrams.net" modified="2023-04-14T12:21:32.619Z" agent="Mozilla/5.0 (Windows NT 10.0; Win64; x64; rv:109.0) Gecko/20100101 Firefox/112.0" etag="EgKZpGcWh1LE-9sd6jgo" version="21.1.7" type="device">
  <diagram name="Page-1" id="Logt_UZWnO3CJlfqjUXF">
    <mxGraphModel dx="1510" dy="378" grid="1" gridSize="10" guides="1" tooltips="1" connect="1" arrows="1" fold="1" page="1" pageScale="1" pageWidth="827" pageHeight="1169" math="0" shadow="0">
      <root>
        <mxCell id="0" />
        <mxCell id="1" parent="0" />
        <mxCell id="QblbB_sKUMmndIMaOqPr-29" style="edgeStyle=orthogonalEdgeStyle;rounded=0;orthogonalLoop=1;jettySize=auto;html=1;endArrow=none;endFill=0;exitX=0.5;exitY=1;exitDx=0;exitDy=0;exitPerimeter=0;" parent="1" source="Af3UFjUPi8hKi6FudJCO-1" target="QblbB_sKUMmndIMaOqPr-4" edge="1">
          <mxGeometry relative="1" as="geometry">
            <Array as="points">
              <mxPoint x="178" y="280" />
              <mxPoint x="482" y="280" />
            </Array>
          </mxGeometry>
        </mxCell>
        <mxCell id="QblbB_sKUMmndIMaOqPr-38" style="edgeStyle=orthogonalEdgeStyle;rounded=0;orthogonalLoop=1;jettySize=auto;html=1;endArrow=none;endFill=0;" parent="1" source="QblbB_sKUMmndIMaOqPr-2" target="Af3UFjUPi8hKi6FudJCO-1" edge="1">
          <mxGeometry relative="1" as="geometry" />
        </mxCell>
        <mxCell id="Af3UFjUPi8hKi6FudJCO-32" style="edgeStyle=orthogonalEdgeStyle;rounded=0;orthogonalLoop=1;jettySize=auto;html=1;endArrow=none;endFill=0;" parent="1" source="QblbB_sKUMmndIMaOqPr-2" target="QblbB_sKUMmndIMaOqPr-7" edge="1">
          <mxGeometry relative="1" as="geometry">
            <Array as="points">
              <mxPoint x="177" y="140" />
              <mxPoint x="65" y="140" />
            </Array>
          </mxGeometry>
        </mxCell>
        <mxCell id="Af3UFjUPi8hKi6FudJCO-33" style="edgeStyle=orthogonalEdgeStyle;rounded=0;orthogonalLoop=1;jettySize=auto;html=1;endArrow=none;endFill=0;" parent="1" source="QblbB_sKUMmndIMaOqPr-2" target="QblbB_sKUMmndIMaOqPr-65" edge="1">
          <mxGeometry relative="1" as="geometry">
            <Array as="points">
              <mxPoint x="178" y="140" />
              <mxPoint x="-227" y="140" />
            </Array>
          </mxGeometry>
        </mxCell>
        <mxCell id="QblbB_sKUMmndIMaOqPr-2" value="ROOT" style="shape=note;whiteSpace=wrap;html=1;backgroundOutline=1;darkOpacity=0.05;" parent="1" vertex="1">
          <mxGeometry x="144.5" y="20" width="66" height="80" as="geometry" />
        </mxCell>
        <mxCell id="QblbB_sKUMmndIMaOqPr-26" value="" style="edgeStyle=orthogonalEdgeStyle;rounded=0;orthogonalLoop=1;jettySize=auto;html=1;endArrow=none;endFill=0;" parent="1" source="QblbB_sKUMmndIMaOqPr-3" edge="1">
          <mxGeometry relative="1" as="geometry">
            <mxPoint x="177.5" y="429.0000000000001" as="targetPoint" />
          </mxGeometry>
        </mxCell>
        <mxCell id="Af3UFjUPi8hKi6FudJCO-7" style="edgeStyle=orthogonalEdgeStyle;rounded=0;orthogonalLoop=1;jettySize=auto;html=1;entryX=0;entryY=0;entryDx=18;entryDy=0;entryPerimeter=0;endArrow=none;endFill=0;" parent="1" source="QblbB_sKUMmndIMaOqPr-3" target="Af3UFjUPi8hKi6FudJCO-5" edge="1">
          <mxGeometry relative="1" as="geometry">
            <Array as="points">
              <mxPoint x="178" y="410" />
              <mxPoint x="-72" y="410" />
            </Array>
          </mxGeometry>
        </mxCell>
        <mxCell id="Af3UFjUPi8hKi6FudJCO-8" style="edgeStyle=orthogonalEdgeStyle;rounded=0;orthogonalLoop=1;jettySize=auto;html=1;endArrow=none;endFill=0;" parent="1" source="QblbB_sKUMmndIMaOqPr-3" target="QblbB_sKUMmndIMaOqPr-10" edge="1">
          <mxGeometry relative="1" as="geometry">
            <Array as="points">
              <mxPoint x="178" y="410" />
              <mxPoint x="58" y="410" />
            </Array>
          </mxGeometry>
        </mxCell>
        <mxCell id="QblbB_sKUMmndIMaOqPr-3" value="frontend/" style="shape=note;whiteSpace=wrap;html=1;backgroundOutline=1;darkOpacity=0.05;fillColor=#dae8fc;strokeColor=#6c8ebf;" parent="1" vertex="1">
          <mxGeometry x="144.5" y="309" width="66" height="80" as="geometry" />
        </mxCell>
        <mxCell id="QblbB_sKUMmndIMaOqPr-46" style="edgeStyle=orthogonalEdgeStyle;rounded=0;orthogonalLoop=1;jettySize=auto;html=1;entryX=0;entryY=0;entryDx=23;entryDy=0;entryPerimeter=0;endArrow=none;endFill=0;" parent="1" source="QblbB_sKUMmndIMaOqPr-4" target="QblbB_sKUMmndIMaOqPr-44" edge="1">
          <mxGeometry relative="1" as="geometry">
            <Array as="points">
              <mxPoint x="567.5" y="409" />
              <mxPoint x="447.5" y="409" />
            </Array>
          </mxGeometry>
        </mxCell>
        <mxCell id="QblbB_sKUMmndIMaOqPr-47" style="edgeStyle=orthogonalEdgeStyle;rounded=0;orthogonalLoop=1;jettySize=auto;html=1;endArrow=none;endFill=0;" parent="1" source="QblbB_sKUMmndIMaOqPr-4" target="QblbB_sKUMmndIMaOqPr-43" edge="1">
          <mxGeometry relative="1" as="geometry">
            <Array as="points">
              <mxPoint x="567.5" y="409" />
              <mxPoint x="371.5" y="409" />
            </Array>
          </mxGeometry>
        </mxCell>
        <mxCell id="QblbB_sKUMmndIMaOqPr-48" style="edgeStyle=orthogonalEdgeStyle;rounded=0;orthogonalLoop=1;jettySize=auto;html=1;endArrow=none;endFill=0;" parent="1" source="QblbB_sKUMmndIMaOqPr-4" target="QblbB_sKUMmndIMaOqPr-17" edge="1">
          <mxGeometry relative="1" as="geometry">
            <Array as="points">
              <mxPoint x="567.5" y="409" />
              <mxPoint x="667.5" y="409" />
            </Array>
          </mxGeometry>
        </mxCell>
        <mxCell id="QblbB_sKUMmndIMaOqPr-49" style="edgeStyle=orthogonalEdgeStyle;rounded=0;orthogonalLoop=1;jettySize=auto;html=1;endArrow=none;endFill=0;" parent="1" source="QblbB_sKUMmndIMaOqPr-4" target="QblbB_sKUMmndIMaOqPr-18" edge="1">
          <mxGeometry relative="1" as="geometry">
            <Array as="points">
              <mxPoint x="567.5" y="409" />
              <mxPoint x="767.5" y="409" />
            </Array>
          </mxGeometry>
        </mxCell>
        <mxCell id="QblbB_sKUMmndIMaOqPr-50" style="edgeStyle=orthogonalEdgeStyle;rounded=0;orthogonalLoop=1;jettySize=auto;html=1;endArrow=none;endFill=0;" parent="1" source="QblbB_sKUMmndIMaOqPr-4" target="QblbB_sKUMmndIMaOqPr-20" edge="1">
          <mxGeometry relative="1" as="geometry">
            <Array as="points">
              <mxPoint x="567.5" y="409" />
              <mxPoint x="857.5" y="409" />
            </Array>
          </mxGeometry>
        </mxCell>
        <mxCell id="Af3UFjUPi8hKi6FudJCO-30" style="edgeStyle=orthogonalEdgeStyle;rounded=0;orthogonalLoop=1;jettySize=auto;html=1;endArrow=none;endFill=0;" parent="1" source="QblbB_sKUMmndIMaOqPr-4" target="Af3UFjUPi8hKi6FudJCO-28" edge="1">
          <mxGeometry relative="1" as="geometry">
            <Array as="points">
              <mxPoint x="502" y="410" />
              <mxPoint x="840" y="410" />
            </Array>
          </mxGeometry>
        </mxCell>
        <mxCell id="Af3UFjUPi8hKi6FudJCO-31" style="edgeStyle=orthogonalEdgeStyle;rounded=0;orthogonalLoop=1;jettySize=auto;html=1;endArrow=none;endFill=0;" parent="1" source="QblbB_sKUMmndIMaOqPr-4" target="Af3UFjUPi8hKi6FudJCO-29" edge="1">
          <mxGeometry relative="1" as="geometry">
            <Array as="points">
              <mxPoint x="502" y="410" />
              <mxPoint x="930" y="410" />
            </Array>
          </mxGeometry>
        </mxCell>
        <mxCell id="ZUQQjGw-rUYK47U5qerq-6" style="edgeStyle=orthogonalEdgeStyle;rounded=0;orthogonalLoop=1;jettySize=auto;html=1;endArrow=none;endFill=0;" edge="1" parent="1" source="QblbB_sKUMmndIMaOqPr-4" target="ZUQQjGw-rUYK47U5qerq-5">
          <mxGeometry relative="1" as="geometry">
            <Array as="points">
              <mxPoint x="502" y="410" />
              <mxPoint x="583" y="410" />
            </Array>
          </mxGeometry>
        </mxCell>
        <mxCell id="QblbB_sKUMmndIMaOqPr-4" value="backend/" style="shape=note;whiteSpace=wrap;html=1;backgroundOutline=1;darkOpacity=0.05;fillColor=#d5e8d4;strokeColor=#82b366;" parent="1" vertex="1">
          <mxGeometry x="468.5" y="309" width="66" height="80" as="geometry" />
        </mxCell>
        <mxCell id="QblbB_sKUMmndIMaOqPr-35" value="" style="edgeStyle=orthogonalEdgeStyle;rounded=0;orthogonalLoop=1;jettySize=auto;html=1;endArrow=none;endFill=0;" parent="1" source="QblbB_sKUMmndIMaOqPr-7" target="QblbB_sKUMmndIMaOqPr-9" edge="1">
          <mxGeometry relative="1" as="geometry" />
        </mxCell>
        <mxCell id="QblbB_sKUMmndIMaOqPr-37" style="edgeStyle=orthogonalEdgeStyle;rounded=0;orthogonalLoop=1;jettySize=auto;html=1;endArrow=none;endFill=0;" parent="1" source="QblbB_sKUMmndIMaOqPr-7" target="QblbB_sKUMmndIMaOqPr-8" edge="1">
          <mxGeometry relative="1" as="geometry">
            <Array as="points">
              <mxPoint x="-9" y="270" />
              <mxPoint x="-152" y="270" />
            </Array>
          </mxGeometry>
        </mxCell>
        <mxCell id="QblbB_sKUMmndIMaOqPr-7" value=".github/" style="shape=note;whiteSpace=wrap;html=1;backgroundOutline=1;darkOpacity=0.05;fillColor=#647687;strokeColor=#314354;fontColor=#ffffff;" parent="1" vertex="1">
          <mxGeometry x="32" y="170" width="66" height="80" as="geometry" />
        </mxCell>
        <mxCell id="QblbB_sKUMmndIMaOqPr-8" value="ISSUE_TEMPLATE/" style="shape=note;whiteSpace=wrap;html=1;backgroundOutline=1;darkOpacity=0.05;fillColor=#647687;strokeColor=#314354;fontColor=#ffffff;" parent="1" vertex="1">
          <mxGeometry x="-126.5" y="290" width="120" height="80" as="geometry" />
        </mxCell>
        <mxCell id="QblbB_sKUMmndIMaOqPr-9" value="workflows/" style="shape=note;whiteSpace=wrap;html=1;backgroundOutline=1;darkOpacity=0.05;fillColor=#647687;strokeColor=#314354;fontColor=#ffffff;" parent="1" vertex="1">
          <mxGeometry x="32" y="290" width="66" height="80" as="geometry" />
        </mxCell>
        <mxCell id="QblbB_sKUMmndIMaOqPr-10" value="public/" style="shape=note;whiteSpace=wrap;html=1;backgroundOutline=1;darkOpacity=0.05;fillColor=#dae8fc;strokeColor=#6c8ebf;" parent="1" vertex="1">
          <mxGeometry x="25" y="429" width="66" height="80" as="geometry" />
        </mxCell>
        <mxCell id="Af3UFjUPi8hKi6FudJCO-13" style="edgeStyle=orthogonalEdgeStyle;rounded=0;orthogonalLoop=1;jettySize=auto;html=1;endArrow=none;endFill=0;" parent="1" source="QblbB_sKUMmndIMaOqPr-11" target="QblbB_sKUMmndIMaOqPr-13" edge="1">
          <mxGeometry relative="1" as="geometry">
            <Array as="points">
              <mxPoint x="183" y="530" />
              <mxPoint x="55" y="530" />
            </Array>
          </mxGeometry>
        </mxCell>
        <mxCell id="Af3UFjUPi8hKi6FudJCO-24" style="edgeStyle=orthogonalEdgeStyle;rounded=0;orthogonalLoop=1;jettySize=auto;html=1;endArrow=none;endFill=0;" parent="1" source="QblbB_sKUMmndIMaOqPr-11" target="QblbB_sKUMmndIMaOqPr-15" edge="1">
          <mxGeometry relative="1" as="geometry">
            <Array as="points">
              <mxPoint x="183" y="530" />
              <mxPoint x="278" y="530" />
            </Array>
          </mxGeometry>
        </mxCell>
        <mxCell id="Af3UFjUPi8hKi6FudJCO-25" style="edgeStyle=orthogonalEdgeStyle;rounded=0;orthogonalLoop=1;jettySize=auto;html=1;endArrow=none;endFill=0;" parent="1" source="QblbB_sKUMmndIMaOqPr-11" target="QblbB_sKUMmndIMaOqPr-14" edge="1">
          <mxGeometry relative="1" as="geometry" />
        </mxCell>
        <mxCell id="Af3UFjUPi8hKi6FudJCO-26" style="edgeStyle=orthogonalEdgeStyle;rounded=0;orthogonalLoop=1;jettySize=auto;html=1;endArrow=none;endFill=0;" parent="1" source="QblbB_sKUMmndIMaOqPr-11" target="Af3UFjUPi8hKi6FudJCO-22" edge="1">
          <mxGeometry relative="1" as="geometry">
            <Array as="points">
              <mxPoint x="183" y="530" />
              <mxPoint x="-45" y="530" />
            </Array>
          </mxGeometry>
        </mxCell>
        <mxCell id="Af3UFjUPi8hKi6FudJCO-27" style="edgeStyle=orthogonalEdgeStyle;rounded=0;orthogonalLoop=1;jettySize=auto;html=1;endArrow=none;endFill=0;" parent="1" source="QblbB_sKUMmndIMaOqPr-11" target="Af3UFjUPi8hKi6FudJCO-23" edge="1">
          <mxGeometry relative="1" as="geometry">
            <Array as="points">
              <mxPoint x="183" y="530" />
              <mxPoint x="-135" y="530" />
            </Array>
          </mxGeometry>
        </mxCell>
        <mxCell id="QblbB_sKUMmndIMaOqPr-11" value="src/" style="shape=note;whiteSpace=wrap;html=1;backgroundOutline=1;darkOpacity=0.05;fillColor=#dae8fc;strokeColor=#6c8ebf;" parent="1" vertex="1">
          <mxGeometry x="150" y="429" width="66" height="80" as="geometry" />
        </mxCell>
        <mxCell id="Af3UFjUPi8hKi6FudJCO-15" style="edgeStyle=orthogonalEdgeStyle;rounded=0;orthogonalLoop=1;jettySize=auto;html=1;endArrow=none;endFill=0;" parent="1" source="QblbB_sKUMmndIMaOqPr-13" target="QblbB_sKUMmndIMaOqPr-51" edge="1">
          <mxGeometry relative="1" as="geometry">
            <Array as="points">
              <mxPoint x="55" y="650" />
              <mxPoint x="-40" y="650" />
            </Array>
          </mxGeometry>
        </mxCell>
        <mxCell id="QblbB_sKUMmndIMaOqPr-13" value="components/" style="shape=note;whiteSpace=wrap;html=1;backgroundOutline=1;darkOpacity=0.05;fillColor=#dae8fc;strokeColor=#6c8ebf;" parent="1" vertex="1">
          <mxGeometry x="18" y="549" width="80" height="80" as="geometry" />
        </mxCell>
        <mxCell id="QblbB_sKUMmndIMaOqPr-14" value="controllers/" style="shape=note;whiteSpace=wrap;html=1;backgroundOutline=1;darkOpacity=0.05;fillColor=#dae8fc;strokeColor=#6c8ebf;" parent="1" vertex="1">
          <mxGeometry x="130" y="549" width="66" height="80" as="geometry" />
        </mxCell>
        <mxCell id="Af3UFjUPi8hKi6FudJCO-11" style="edgeStyle=orthogonalEdgeStyle;rounded=0;orthogonalLoop=1;jettySize=auto;html=1;endArrow=none;endFill=0;" parent="1" source="QblbB_sKUMmndIMaOqPr-15" target="Af3UFjUPi8hKi6FudJCO-9" edge="1">
          <mxGeometry relative="1" as="geometry" />
        </mxCell>
        <mxCell id="Af3UFjUPi8hKi6FudJCO-12" style="edgeStyle=orthogonalEdgeStyle;rounded=0;orthogonalLoop=1;jettySize=auto;html=1;endArrow=none;endFill=0;" parent="1" source="QblbB_sKUMmndIMaOqPr-15" target="Af3UFjUPi8hKi6FudJCO-10" edge="1">
          <mxGeometry relative="1" as="geometry" />
        </mxCell>
        <mxCell id="QblbB_sKUMmndIMaOqPr-15" value="static/" style="shape=note;whiteSpace=wrap;html=1;backgroundOutline=1;darkOpacity=0.05;fillColor=#dae8fc;strokeColor=#6c8ebf;" parent="1" vertex="1">
          <mxGeometry x="245" y="549" width="66" height="80" as="geometry" />
        </mxCell>
        <mxCell id="QblbB_sKUMmndIMaOqPr-17" value="entity/" style="shape=note;whiteSpace=wrap;html=1;backgroundOutline=1;darkOpacity=0.05;fillColor=#d5e8d4;strokeColor=#82b366;" parent="1" vertex="1">
          <mxGeometry x="468.5" y="429" width="66" height="80" as="geometry" />
        </mxCell>
        <mxCell id="QblbB_sKUMmndIMaOqPr-18" value="routes/" style="shape=note;whiteSpace=wrap;html=1;backgroundOutline=1;darkOpacity=0.05;fillColor=#d5e8d4;strokeColor=#82b366;" parent="1" vertex="1">
          <mxGeometry x="630" y="429" width="66" height="80" as="geometry" />
        </mxCell>
        <mxCell id="QblbB_sKUMmndIMaOqPr-20" value="test/" style="shape=note;whiteSpace=wrap;html=1;backgroundOutline=1;darkOpacity=0.05;fillColor=#d5e8d4;strokeColor=#82b366;" parent="1" vertex="1">
          <mxGeometry x="720" y="429" width="66" height="80" as="geometry" />
        </mxCell>
        <mxCell id="QblbB_sKUMmndIMaOqPr-43" value="config/" style="shape=note;whiteSpace=wrap;html=1;backgroundOutline=1;darkOpacity=0.05;fillColor=#d5e8d4;strokeColor=#82b366;" parent="1" vertex="1">
          <mxGeometry x="280" y="429" width="66" height="80" as="geometry" />
        </mxCell>
        <mxCell id="QblbB_sKUMmndIMaOqPr-44" value="controllers/" style="shape=note;whiteSpace=wrap;html=1;backgroundOutline=1;darkOpacity=0.05;fillColor=#d5e8d4;strokeColor=#82b366;" parent="1" vertex="1">
          <mxGeometry x="366" y="429" width="76" height="80" as="geometry" />
        </mxCell>
        <mxCell id="QblbB_sKUMmndIMaOqPr-51" value="app/" style="shape=note;whiteSpace=wrap;html=1;backgroundOutline=1;darkOpacity=0.05;fillColor=#dae8fc;strokeColor=#6c8ebf;" parent="1" vertex="1">
          <mxGeometry x="-74" y="669" width="66" height="80" as="geometry" />
        </mxCell>
        <mxCell id="QblbB_sKUMmndIMaOqPr-52" value="auth/" style="shape=note;whiteSpace=wrap;html=1;backgroundOutline=1;darkOpacity=0.05;fillColor=#dae8fc;strokeColor=#6c8ebf;" parent="1" vertex="1">
          <mxGeometry x="25" y="669" width="66" height="80" as="geometry" />
        </mxCell>
        <mxCell id="ZUQQjGw-rUYK47U5qerq-3" style="edgeStyle=orthogonalEdgeStyle;rounded=0;orthogonalLoop=1;jettySize=auto;html=1;endArrow=none;endFill=0;" edge="1" parent="1" source="QblbB_sKUMmndIMaOqPr-65" target="ZUQQjGw-rUYK47U5qerq-1">
          <mxGeometry relative="1" as="geometry" />
        </mxCell>
        <mxCell id="ZUQQjGw-rUYK47U5qerq-4" style="edgeStyle=orthogonalEdgeStyle;rounded=0;orthogonalLoop=1;jettySize=auto;html=1;endArrow=none;endFill=0;" edge="1" parent="1" source="QblbB_sKUMmndIMaOqPr-65" target="ZUQQjGw-rUYK47U5qerq-2">
          <mxGeometry relative="1" as="geometry">
            <Array as="points">
              <mxPoint x="-227" y="260" />
              <mxPoint x="-337" y="260" />
            </Array>
          </mxGeometry>
        </mxCell>
        <mxCell id="QblbB_sKUMmndIMaOqPr-65" value="docs/" style="shape=note;whiteSpace=wrap;html=1;backgroundOutline=1;darkOpacity=0.05;fillColor=#fff2cc;strokeColor=#d6b656;" parent="1" vertex="1">
          <mxGeometry x="-260" y="170" width="66" height="80" as="geometry" />
        </mxCell>
        <mxCell id="Af3UFjUPi8hKi6FudJCO-1" value="Web App" style="shape=note;whiteSpace=wrap;html=1;backgroundOutline=1;darkOpacity=0.05;fillColor=#f8cecc;strokeColor=#b85450;" parent="1" vertex="1">
          <mxGeometry x="144.5" y="170" width="66" height="80" as="geometry" />
        </mxCell>
        <mxCell id="Af3UFjUPi8hKi6FudJCO-2" style="edgeStyle=orthogonalEdgeStyle;rounded=0;orthogonalLoop=1;jettySize=auto;html=1;endArrow=none;endFill=0;exitX=0.5;exitY=1;exitDx=0;exitDy=0;exitPerimeter=0;" parent="1" source="Af3UFjUPi8hKi6FudJCO-1" target="QblbB_sKUMmndIMaOqPr-3" edge="1">
          <mxGeometry relative="1" as="geometry">
            <Array as="points">
              <mxPoint x="178" y="280" />
              <mxPoint x="178" y="280" />
            </Array>
            <mxPoint x="188" y="260" as="sourcePoint" />
            <mxPoint x="492" y="319" as="targetPoint" />
          </mxGeometry>
        </mxCell>
        <mxCell id="Af3UFjUPi8hKi6FudJCO-5" value="cypress/" style="shape=note;whiteSpace=wrap;html=1;backgroundOutline=1;darkOpacity=0.05;fillColor=#dae8fc;strokeColor=#6c8ebf;" parent="1" vertex="1">
          <mxGeometry x="-90" y="429" width="66" height="80" as="geometry" />
        </mxCell>
        <mxCell id="Af3UFjUPi8hKi6FudJCO-9" value="fonts/" style="shape=note;whiteSpace=wrap;html=1;backgroundOutline=1;darkOpacity=0.05;fillColor=#dae8fc;strokeColor=#6c8ebf;" parent="1" vertex="1">
          <mxGeometry x="200" y="660" width="66" height="80" as="geometry" />
        </mxCell>
        <mxCell id="Af3UFjUPi8hKi6FudJCO-10" value="images/" style="shape=note;whiteSpace=wrap;html=1;backgroundOutline=1;darkOpacity=0.05;fillColor=#dae8fc;strokeColor=#6c8ebf;" parent="1" vertex="1">
          <mxGeometry x="292.5" y="660" width="66" height="80" as="geometry" />
        </mxCell>
        <mxCell id="Af3UFjUPi8hKi6FudJCO-16" value="commons/" style="shape=note;whiteSpace=wrap;html=1;backgroundOutline=1;darkOpacity=0.05;fillColor=#dae8fc;strokeColor=#6c8ebf;" parent="1" vertex="1">
          <mxGeometry x="113" y="669" width="66" height="80" as="geometry" />
        </mxCell>
        <mxCell id="Af3UFjUPi8hKi6FudJCO-18" style="edgeStyle=orthogonalEdgeStyle;rounded=0;orthogonalLoop=1;jettySize=auto;html=1;endArrow=none;endFill=0;" parent="1" edge="1">
          <mxGeometry relative="1" as="geometry">
            <mxPoint x="55" y="629" as="sourcePoint" />
            <mxPoint x="55" y="669" as="targetPoint" />
            <Array as="points">
              <mxPoint x="55" y="660" />
              <mxPoint x="55" y="660" />
            </Array>
          </mxGeometry>
        </mxCell>
        <mxCell id="Af3UFjUPi8hKi6FudJCO-19" style="edgeStyle=orthogonalEdgeStyle;rounded=0;orthogonalLoop=1;jettySize=auto;html=1;endArrow=none;endFill=0;" parent="1" edge="1">
          <mxGeometry relative="1" as="geometry">
            <mxPoint x="55" y="629" as="sourcePoint" />
            <mxPoint x="138" y="669" as="targetPoint" />
            <Array as="points">
              <mxPoint x="55" y="650" />
              <mxPoint x="138" y="650" />
            </Array>
          </mxGeometry>
        </mxCell>
        <mxCell id="Af3UFjUPi8hKi6FudJCO-22" value="contexts/" style="shape=note;whiteSpace=wrap;html=1;backgroundOutline=1;darkOpacity=0.05;fillColor=#dae8fc;strokeColor=#6c8ebf;" parent="1" vertex="1">
          <mxGeometry x="-80" y="549" width="70" height="80" as="geometry" />
        </mxCell>
        <mxCell id="Af3UFjUPi8hKi6FudJCO-23" value="hooks/" style="shape=note;whiteSpace=wrap;html=1;backgroundOutline=1;darkOpacity=0.05;fillColor=#dae8fc;strokeColor=#6c8ebf;" parent="1" vertex="1">
          <mxGeometry x="-170" y="549" width="70" height="80" as="geometry" />
        </mxCell>
        <mxCell id="Af3UFjUPi8hKi6FudJCO-28" value="services/" style="shape=note;whiteSpace=wrap;html=1;backgroundOutline=1;darkOpacity=0.05;fillColor=#d5e8d4;strokeColor=#82b366;" parent="1" vertex="1">
          <mxGeometry x="811.5" y="429" width="66" height="80" as="geometry" />
        </mxCell>
        <mxCell id="Af3UFjUPi8hKi6FudJCO-29" value="utils/" style="shape=note;whiteSpace=wrap;html=1;backgroundOutline=1;darkOpacity=0.05;fillColor=#d5e8d4;strokeColor=#82b366;" parent="1" vertex="1">
          <mxGeometry x="901.5" y="429" width="66" height="80" as="geometry" />
        </mxCell>
        <mxCell id="ZUQQjGw-rUYK47U5qerq-1" value="files/" style="shape=note;whiteSpace=wrap;html=1;backgroundOutline=1;darkOpacity=0.05;fillColor=#fff2cc;strokeColor=#d6b656;" vertex="1" parent="1">
          <mxGeometry x="-260" y="270" width="66" height="80" as="geometry" />
        </mxCell>
        <mxCell id="ZUQQjGw-rUYK47U5qerq-2" value="diagram/" style="shape=note;whiteSpace=wrap;html=1;backgroundOutline=1;darkOpacity=0.05;fillColor=#fff2cc;strokeColor=#d6b656;" vertex="1" parent="1">
          <mxGeometry x="-370" y="270" width="66" height="80" as="geometry" />
        </mxCell>
        <mxCell id="ZUQQjGw-rUYK47U5qerq-5" value="models/" style="shape=note;whiteSpace=wrap;html=1;backgroundOutline=1;darkOpacity=0.05;fillColor=#d5e8d4;strokeColor=#82b366;" vertex="1" parent="1">
          <mxGeometry x="550" y="429" width="66" height="80" as="geometry" />
        </mxCell>
      </root>
    </mxGraphModel>
  </diagram>
</mxfile>
